<svg width="28" height="28" viewBox="0 0 28 28" fill="none" xmlns="http://www.w3.org/2000/svg">
<path d="M14.8855 0.108765C14.6758 0.108765 14.4796 0.212031 14.3609 0.384961C14.0139 0.89026 5.86328 12.8302 5.86328 18.8691C5.86328 23.8439 9.91059 27.8912 14.8854 27.8912C19.8603 27.8912 23.9075 23.8439 23.9075 18.8691C23.9075 12.8302 15.757 0.89026 15.41 0.384961C15.2915 0.212115 15.0952 0.108765 14.8855 0.108765ZM14.8855 26.6184C10.6125 26.6184 7.13616 23.1421 7.13616 18.8691C7.13616 14.0659 13.065 4.66528 14.8855 1.89229C16.706 4.66528 22.6348 14.0658 22.6348 18.8691C22.6348 23.1421 19.1585 26.6184 14.8855 26.6184Z" fill="#333333"/>
<path d="M14.249 24.2848C14.249 24.6363 14.5339 24.9212 14.8854 24.9212C18.2227 24.9212 20.9378 22.2063 20.9378 18.8692C20.9378 18.5178 20.653 18.2328 20.3014 18.2328C19.9499 18.2328 19.665 18.5178 19.665 18.8692C19.665 21.5045 17.5209 23.6484 14.8854 23.6484C14.5339 23.6484 14.249 23.9333 14.249 24.2848Z" fill="#ED1C24"/>
<path d="M27.364 2.68624H26.1274V1.44951C26.1274 1.09805 25.8425 0.81311 25.491 0.81311C25.1394 0.81311 24.8546 1.09805 24.8546 1.44951V2.68624H23.6178C23.2663 2.68624 22.9814 2.97117 22.9814 3.32263C22.9814 3.67409 23.2663 3.95903 23.6178 3.95903H24.8546V5.19576C24.8546 5.54722 25.1394 5.83216 25.491 5.83216C25.8425 5.83216 26.1274 5.54722 26.1274 5.19576V3.95903H27.364C27.7156 3.95903 28.0004 3.67409 28.0004 3.32263C28.0004 2.97117 27.7156 2.68624 27.364 2.68624Z" fill="#ED1C24"/>
<path d="M4.38265 21.8489H3.14592V20.6122C3.14592 20.2607 2.86107 19.9758 2.50952 19.9758C2.15798 19.9758 1.87313 20.2607 1.87313 20.6122V21.8489H0.636396C0.284851 21.8489 0 22.1338 0 22.4853C0 22.8368 0.284851 23.1217 0.636396 23.1217H1.87313V24.3584C1.87313 24.7099 2.15798 24.9948 2.50952 24.9948C2.86107 24.9948 3.14592 24.7099 3.14592 24.3584V23.1217H4.38265C4.7342 23.1217 5.01905 22.8368 5.01905 22.4853C5.01905 22.1338 4.7342 21.8489 4.38265 21.8489Z" fill="#333333"/>
</svg>
