<svg width="28" height="28" viewBox="0 0 28 28" fill="none" xmlns="http://www.w3.org/2000/svg">
<path d="M12.6875 8.74951C12.5715 8.74952 12.4602 8.79561 12.3781 8.87766C12.2961 8.9597 12.25 9.07098 12.25 9.18701V26.687C12.25 26.803 12.2961 26.9143 12.3781 26.9964C12.4602 27.0784 12.5715 27.1245 12.6875 27.1245H15.3125C15.4285 27.1245 15.5398 27.0784 15.6218 26.9964C15.7039 26.9143 15.75 26.803 15.75 26.687V9.18701C15.75 9.07098 15.7039 8.9597 15.6218 8.87766C15.5398 8.79561 15.4285 8.74952 15.3125 8.74951H12.6875ZM13.125 9.62451H14.875V26.2495H13.125V9.62451Z" fill="#ED1C24"/>
<path d="M4.8125 0.874512C4.69647 0.874523 4.58519 0.920614 4.50315 1.00266C4.4211 1.0847 4.37501 1.19598 4.375 1.31201V6.56201C4.37501 6.67804 4.4211 6.78931 4.50315 6.87135C4.58519 6.9534 4.69647 6.9995 4.8125 6.99951H8.3125C8.41028 6.99974 8.50531 6.96721 8.58244 6.90712C8.65957 6.84703 8.71435 6.76283 8.73804 6.66797L9.0918 5.24951H10.23L10.5461 5.88354C10.5826 5.95606 10.6385 6.01699 10.7076 6.05954C10.7768 6.1021 10.8563 6.1246 10.9375 6.12451H11.4263L11.8159 9.2417C11.8292 9.34742 11.8807 9.44464 11.9606 9.51512C12.0405 9.58561 12.1434 9.62451 12.25 9.62451H15.75C15.8566 9.62451 15.9595 9.58561 16.0394 9.51512C16.1193 9.44464 16.1708 9.34742 16.1841 9.2417L16.5737 6.12451H16.625C16.9739 6.12451 17.3166 6.22944 17.606 6.42529C17.625 6.43825 17.6449 6.44968 17.6657 6.4595L17.7188 6.48513L22.4578 9.43656C23.1052 9.83997 23.9511 9.59444 24.3257 8.95292C24.514 8.63063 24.5374 8.25417 24.4385 7.93948C24.3396 7.62479 24.1391 7.36295 23.895 7.15507L19.1321 3.09964L19.1184 3.08424H19.1167C18.2652 2.23197 17.2477 1.74953 16.1943 1.74953H16.1873H10.9373C10.856 1.7496 10.7763 1.77235 10.7071 1.81521C10.638 1.85808 10.5822 1.91938 10.546 1.99221L10.2298 2.62453H9.1634L8.73103 1.18728C8.70417 1.09704 8.64893 1.01787 8.57349 0.961523C8.49806 0.90518 8.40648 0.874668 8.31233 0.874525L4.8125 0.874512ZM5.25 1.74951H7.98779L8.41846 3.18848C8.44562 3.2784 8.50099 3.35718 8.57639 3.41319C8.65179 3.46921 8.74323 3.49948 8.83716 3.49951H10.5C10.5812 3.4996 10.6607 3.4771 10.7299 3.43454C10.799 3.39199 10.8549 3.33106 10.8914 3.25854L11.2075 2.62451H16.1875H16.1945C16.9842 2.62451 17.7736 2.9773 18.4982 3.70288L18.5255 3.73018C18.5337 3.73849 18.5423 3.74645 18.5512 3.75407L23.3278 7.82145C23.4713 7.94371 23.5683 8.08529 23.6046 8.20085C23.6409 8.31641 23.6375 8.39702 23.5704 8.51188C23.4343 8.74501 23.138 8.82998 22.921 8.69474L18.1598 5.72795C18.1449 5.71848 18.1295 5.70992 18.1137 5.70231L18.0367 5.66644L18.0966 5.70066C17.6626 5.40687 17.1493 5.24947 16.6252 5.24947H16.1877C16.0811 5.24948 15.9782 5.28838 15.8983 5.35886C15.8184 5.42934 15.7669 5.52656 15.7536 5.63228L15.3639 8.74947H12.6364L12.2467 5.63228C12.2334 5.52656 12.182 5.42934 12.102 5.35886C12.0221 5.28838 11.9192 5.24948 11.8127 5.24947H11.2094L10.8915 4.61716C10.8553 4.54433 10.7995 4.48303 10.7303 4.44016C10.6612 4.39729 10.5815 4.37455 10.5002 4.37447H8.75016C8.65268 4.37462 8.55803 4.40733 8.48125 4.4674C8.40447 4.52746 8.34995 4.61144 8.32633 4.70601L7.97086 6.12447H5.25016L5.25 1.74951Z" fill="#333333"/>
</svg>
