<svg width="28" height="28" viewBox="0 0 28 28" fill="none" xmlns="http://www.w3.org/2000/svg">
<g clip-path="url(#clip0_306_76)">
<path d="M24.672 19.655C25.2362 18.6427 25.0745 17.7455 24.823 17.1521C24.6415 16.7238 24.3893 16.3982 24.2226 16.2113C24.5756 13.6519 23.1322 12.3222 22.5826 11.9161C22.4358 10.3769 21.4822 9.50337 20.9459 9.12816C21.2286 8.40502 21.6827 6.7679 20.7633 5.29692C19.8464 3.82992 18.4153 3.50945 17.7557 3.44104C17.6497 3.08694 17.4406 2.49117 17.0923 1.89595C16.3431 0.61583 15.3173 -0.0394906 14.1232 0.00190782C11.6752 0.0863453 10.5545 2.95432 10.2872 3.76145C8.33009 4.65767 8.19299 6.50606 8.10133 7.74227C8.06212 8.27055 8.0216 8.81688 7.85114 9.01999C7.17815 9.82176 7.16268 10.8368 7.20298 11.3244C6.04886 12.2513 6.0855 13.628 6.18197 14.279C4.8693 14.9878 4.41654 16.1068 4.27179 16.9503C4.16815 17.5545 4.20726 18.0948 4.25243 18.4205C2.37068 19.7072 2.94567 22.2536 2.97214 22.3661C2.97673 22.3855 2.98269 22.4046 2.98986 22.4232C3.02672 22.5187 3.9167 24.7283 7.13818 25.1606C7.4564 25.5124 8.34606 26.3164 9.69263 26.1211C10.1486 26.6894 11.478 28.0002 14.0403 28.0002C14.2344 28.0002 14.4358 27.9926 14.6443 27.9766C14.952 27.9797 17.608 27.9553 19.2328 26.0111C19.8083 26.0215 21.2069 25.8918 22.0491 24.546C22.6164 24.4685 23.9701 24.1233 24.7694 22.5847C25.4756 21.2258 24.9859 20.14 24.672 19.655ZM23.9956 22.1824C23.2344 23.6475 21.8372 23.6947 21.7805 23.696C21.6211 23.6976 21.4752 23.786 21.4001 23.9268C20.6661 25.3025 19.1504 25.1376 19.0881 25.1302C18.9328 25.1101 18.7785 25.1749 18.6841 25.3C17.2916 27.1449 14.6681 27.1049 14.6433 27.104C14.6279 27.1036 14.6124 27.104 14.5971 27.1053C11.4987 27.3507 10.3032 25.4912 10.255 25.4139C10.1747 25.2816 10.0322 25.204 9.88223 25.204C9.84794 25.204 9.81322 25.2081 9.77882 25.2165C8.50296 25.5277 7.7451 24.5325 7.71486 24.492C7.64272 24.3928 7.53215 24.3286 7.4103 24.315C4.74101 24.0184 3.91861 22.3688 3.8146 22.134C3.75488 21.8444 3.41013 19.8651 4.94504 19.0175C5.11829 18.9219 5.20547 18.7216 5.15734 18.5297C5.1557 18.5233 5.00001 17.8657 5.1318 17.0978C5.30593 16.0827 5.88474 15.3504 6.85233 14.9213C7.05008 14.8335 7.15322 14.6126 7.0953 14.4042C7.07638 14.3362 6.64686 12.7292 7.9096 11.8874C8.05654 11.7894 8.12994 11.6124 8.09543 11.4392C8.09329 11.4283 7.895 10.3247 8.51936 9.58081C8.87084 9.16212 8.91744 8.53403 8.97136 7.8068C9.06389 6.55921 9.16878 5.14516 10.8067 4.4876C10.9323 4.43717 11.0276 4.33075 11.0642 4.20043C11.0734 4.16784 12.0031 0.947892 14.1534 0.873736C16.2584 0.801056 16.9842 3.92267 16.991 3.95368C17.0363 4.15821 17.2212 4.30166 17.43 4.29537C17.4464 4.29471 19.0889 4.26387 20.0236 5.7593C20.9525 7.24543 20.0168 9.07954 20.0077 9.09704C19.9526 9.2016 19.9423 9.3241 19.9791 9.43638C20.016 9.54865 20.0968 9.64118 20.2032 9.69281C20.2177 9.69986 21.652 10.4154 21.7264 12.1761C21.7326 12.3232 21.8147 12.4585 21.9413 12.5338C22.0167 12.5787 23.7848 13.6633 23.3286 16.2837C23.3028 16.4322 23.3553 16.5834 23.4678 16.6838C23.523 16.7332 24.8113 17.9117 23.7849 19.4336C23.6719 19.6012 23.6868 19.8222 23.8238 19.9709C23.8578 20.009 24.652 20.9189 23.9956 22.1824Z" fill="#333333"/>
<path d="M14.0401 7.695C13.9747 7.46312 13.7334 7.32826 13.5019 7.39351C12.9548 7.54773 12.0326 8.17477 12.0633 9.48793C11.4376 9.61513 10.6558 10.0602 10.4113 11.1894C10.3603 11.425 10.5099 11.6571 10.7453 11.7081C10.7764 11.7149 10.8074 11.7181 10.838 11.7181C11.0389 11.7181 11.2197 11.5785 11.2639 11.3741C11.4968 10.2984 12.4119 10.3153 12.5113 10.3202C12.6449 10.3298 12.7766 10.2765 12.8664 10.1764C12.9562 10.0764 12.9949 9.94041 12.9711 9.80796C12.7496 8.5741 13.6367 8.26435 13.742 8.23219C13.9718 8.16548 14.1051 7.92572 14.0401 7.695Z" fill="#ED1C24"/>
<path d="M18.5334 15.4404C18.2606 15.1492 17.9312 14.9995 17.6665 14.9226C17.7219 13.691 16.8604 12.9547 16.3443 12.7227C16.1249 12.6239 15.865 12.7212 15.7662 12.941C15.6675 13.1607 15.7641 13.4182 15.9837 13.5169C16.0884 13.5659 16.9992 14.0288 16.7555 15.1876C16.7289 15.314 16.7598 15.4457 16.8397 15.5472C16.9195 15.6487 17.0403 15.7095 17.1694 15.7133C17.1738 15.7134 17.6185 15.7396 17.8968 16.0368C18.0743 16.2263 18.1579 16.5025 18.1453 16.8579C18.1367 17.0987 18.3249 17.3008 18.5657 17.3093C18.571 17.3095 18.5763 17.3096 18.5815 17.3096C18.8152 17.3096 19.0087 17.1244 19.017 16.8889C19.0383 16.293 18.8755 15.8057 18.5334 15.4404Z" fill="#333333"/>
<path d="M11.9602 15.3939L11.7878 14.5388C11.7367 14.549 10.603 14.7934 10.3222 16.1413C9.72746 16.4375 8.98163 17.172 9.27005 18.46C9.3155 18.663 9.49558 18.801 9.6953 18.801C9.72686 18.801 9.75891 18.7975 9.79101 18.7903C10.0261 18.7376 10.174 18.5044 10.1213 18.2694C10.0189 17.8126 10.0993 17.456 10.3669 17.1792C10.5826 16.9561 10.8449 16.867 10.8448 16.867C11.0094 16.8153 11.128 16.6715 11.1475 16.5001C11.2515 15.5839 11.8931 15.4095 11.9659 15.3926L11.9602 15.3939Z" fill="#ED1C24"/>
<path d="M7.71673 20.5902C7.30384 20.1159 6.58196 20.0659 6.10755 20.4787C5.87775 20.6788 5.73967 20.9563 5.71861 21.2602C5.69756 21.5642 5.79616 21.8581 5.99615 22.0879C6.19614 22.3177 6.47374 22.4558 6.77764 22.4769C6.80454 22.4787 6.83145 22.4796 6.85814 22.4796C7.13316 22.4796 7.39588 22.3816 7.60539 22.1993C7.83513 21.9993 7.97327 21.7217 7.99432 21.4178C8.01538 21.1139 7.91672 20.82 7.71673 20.5902ZM7.03259 21.5414C6.9785 21.5884 6.91014 21.6117 6.8379 21.6067C6.76642 21.6017 6.70118 21.5692 6.65415 21.5152C6.60712 21.4611 6.58393 21.3921 6.58891 21.3206C6.59383 21.2491 6.62637 21.1839 6.68035 21.1368C6.73104 21.0927 6.79382 21.0711 6.85628 21.0711C6.93125 21.0711 7.00579 21.1022 7.05873 21.163C7.10576 21.2171 7.129 21.2861 7.12403 21.3576C7.11899 21.4291 7.08657 21.4943 7.03259 21.5414Z" fill="#ED1C24"/>
<path d="M18.7665 6.63251H18.7665C18.3536 6.15815 17.6318 6.10822 17.1574 6.52105C16.9276 6.7211 16.7895 6.99864 16.7684 7.30254C16.7474 7.60655 16.846 7.90044 17.046 8.13018C17.2459 8.36008 17.5235 8.49817 17.8274 8.51923C17.8543 8.52108 17.8812 8.52201 17.9079 8.52201C18.1829 8.52201 18.4456 8.42396 18.6551 8.24163C18.8849 8.04164 19.023 7.7641 19.0441 7.46015C19.0651 7.15625 18.9665 6.8623 18.7665 6.63251ZM18.0823 7.58374C18.0282 7.63077 17.9599 7.65418 17.8876 7.64904C17.8161 7.64412 17.7509 7.61158 17.7038 7.55755C17.6568 7.50351 17.6336 7.43444 17.6386 7.36297C17.6435 7.29149 17.6761 7.22619 17.7301 7.17911C17.7808 7.13497 17.8436 7.11332 17.906 7.11332C17.981 7.11332 18.0555 7.14449 18.1085 7.2053C18.1555 7.25933 18.1788 7.3284 18.1738 7.39988C18.1688 7.47147 18.1363 7.53671 18.0823 7.58374Z" fill="#333333"/>
<path d="M14.6528 3.24911C14.6088 3.01226 14.3805 2.8558 14.1442 2.89998C14.0572 2.91617 12.0079 3.32201 11.4502 5.5969C11.3927 5.8308 11.536 6.06699 11.77 6.1243C11.8049 6.13284 11.8398 6.13699 11.8742 6.13699C12.0704 6.13699 12.2486 6.00366 12.2974 5.80455C12.7176 4.09059 14.2372 3.77077 14.3055 3.75727C14.5413 3.71237 14.6967 3.48525 14.6528 3.24911Z" fill="#ED1C24"/>
<path d="M16.3673 23.5706C16.2524 23.3588 15.9877 23.2802 15.7759 23.3953C14.9997 23.8167 14.3224 23.936 13.7621 23.7499C13.059 23.5163 12.7487 22.858 12.7468 22.8539C12.6935 22.7344 12.5894 22.645 12.4632 22.6106C11.0319 22.2198 10.781 20.7442 10.7707 20.6791C10.7342 20.4417 10.5124 20.2785 10.2749 20.314C10.0367 20.3497 9.87249 20.5717 9.9082 20.8099C9.92061 20.8927 10.2245 22.7843 12.0505 23.3967C12.2345 23.7039 12.6801 24.304 13.4717 24.5728C13.738 24.6632 14.0168 24.7083 14.3072 24.7083C14.891 24.7083 15.5219 24.5258 16.192 24.1621C16.4038 24.0471 16.4822 23.7823 16.3673 23.5706Z" fill="#333333"/>
<path d="M20.2035 19.2194C20.1917 18.9788 19.9881 18.7931 19.7464 18.8052C19.5058 18.8171 19.3204 19.0216 19.3322 19.2623C19.4304 21.2562 18.2938 21.8024 18.2365 21.8286C18.0176 21.924 17.9158 22.1783 18.0094 22.3987C18.0799 22.5649 18.2412 22.6647 18.411 22.6647C18.4679 22.6647 18.5256 22.6535 18.5812 22.63C18.6528 22.5996 20.3334 21.856 20.2035 19.2194Z" fill="#ED1C24"/>
</g>
<defs>
<clipPath id="clip0_306_76">
<rect width="28" height="28" fill="white"/>
</clipPath>
</defs>
</svg>
