<svg width="20" height="20" viewBox="0 0 20 20" fill="none" xmlns="http://www.w3.org/2000/svg">
<path fill-rule="evenodd" clip-rule="evenodd" d="M9.55806 17.9419C9.31398 17.6979 9.31398 17.3021 9.55806 17.0581L16.6161 10L9.55806 2.94194C9.31398 2.69786 9.31398 2.30214 9.55806 2.05806C9.80214 1.81398 10.1979 1.81398 10.4419 2.05806L17.9419 9.55806C18.186 9.80214 18.186 10.1979 17.9419 10.4419L10.4419 17.9419C10.1979 18.186 9.80214 18.186 9.55806 17.9419Z" fill="#999999"/>
<path fill-rule="evenodd" clip-rule="evenodd" d="M4.55806 17.9419C4.31398 17.6979 4.31398 17.3021 4.55806 17.0581L11.6161 10L4.55806 2.94194C4.31398 2.69786 4.31398 2.30214 4.55806 2.05806C4.80214 1.81398 5.19786 1.81398 5.44194 2.05806L12.9419 9.55806C13.186 9.80214 13.186 10.1979 12.9419 10.4419L5.44194 17.9419C5.19786 18.186 4.80214 18.186 4.55806 17.9419Z" fill="#999999"/>
</svg>
