<svg width="28" height="28" viewBox="0 0 28 28" fill="none" xmlns="http://www.w3.org/2000/svg">
<path d="M8.56055 10.5C8.71652 9.10562 9.19634 7.76702 9.96171 6.59108C10.7271 5.41514 11.7568 4.43443 12.9686 3.72725C14.1804 3.02007 15.5408 2.60602 16.9411 2.51816C18.3415 2.43029 19.7429 2.67104 21.0336 3.22118C22.3244 3.77132 23.4686 4.61562 24.3749 5.68667C25.2813 6.75771 25.9247 8.02583 26.2538 9.38977C26.5828 10.7537 26.5884 12.1757 26.2701 13.5422C25.9518 14.9087 25.3184 16.1818 24.4205 17.26" stroke="#333333" stroke-linecap="round" stroke-linejoin="round"/>
<path d="M17.5 7.5V11.5H20.5" stroke="#ED1C24" stroke-linecap="round" stroke-linejoin="round"/>
<path d="M1.5 15.5H9.5C10.1566 15.5 10.8068 15.6293 11.4134 15.8806C12.02 16.1319 12.5712 16.5002 13.0355 16.9645C13.4998 17.4288 13.8681 17.98 14.1194 18.5866C14.3707 19.1932 14.5 19.8434 14.5 20.5V20.5" stroke="#333333" stroke-linecap="round" stroke-linejoin="round"/>
<path d="M8.5 20.5H18.5C19.5609 20.5 20.5783 20.9214 21.3284 21.6716C22.0786 22.4217 22.5 23.4391 22.5 24.5C22.5 24.7652 22.3946 25.0196 22.2071 25.2071C22.0196 25.3946 21.7652 25.5 21.5 25.5H1.5" stroke="#333333" stroke-linecap="round" stroke-linejoin="round"/>
</svg>
