<svg width="28" height="28" viewBox="0 0 28 28" fill="none" xmlns="http://www.w3.org/2000/svg">
<g clip-path="url(#clip0_8_424)">
<path d="M1 17H5C6.32608 17 7.59785 17.5268 8.53553 18.4645C9.47322 19.4021 10 20.6739 10 22" stroke="#333333" stroke-linecap="round" stroke-linejoin="round"/>
<path d="M4 22H14C15.0609 22 16.0783 22.4214 16.8284 23.1716C17.5786 23.9217 18 24.9391 18 26C18 26.2652 17.8946 26.5196 17.7071 26.7071C17.5196 26.8946 17.2652 27 17 27H1" stroke="#333333" stroke-linecap="round" stroke-linejoin="round"/>
<path d="M16.7847 1.22876L13.4297 6.42626L17.4997 16.2575" stroke="#ED1C24" stroke-linecap="round" stroke-linejoin="round"/>
<path d="M18.2563 1.22876L21.5975 6.42626L17.5 16.2575" stroke="#ED1C24" stroke-linecap="round" stroke-linejoin="round"/>
<path d="M8.58984 6.42627H26.4098" stroke="#333333" stroke-linecap="round" stroke-linejoin="round"/>
<path d="M22.5051 1.24255H12.4951C12.2643 1.24889 12.0383 1.30945 11.8352 1.41933C11.6322 1.5292 11.4579 1.68532 11.3263 1.87505L8.82383 5.34005C8.63801 5.60264 8.54521 5.91977 8.56015 6.24111C8.5751 6.56245 8.69694 6.8696 8.90633 7.1138L16.4138 15.7626C16.5424 15.9282 16.7071 16.0622 16.8953 16.1544C17.0836 16.2466 17.2904 16.2945 17.5001 16.2945C17.7097 16.2945 17.9166 16.2466 18.1048 16.1544C18.2931 16.0622 18.4578 15.9282 18.5863 15.7626L26.0938 7.1138C26.3032 6.8696 26.4251 6.56245 26.44 6.24111C26.455 5.91977 26.3622 5.60264 26.1763 5.34005L23.6738 1.87505C23.5423 1.68532 23.368 1.5292 23.1649 1.41933C22.9619 1.30945 22.7359 1.24889 22.5051 1.24255V1.24255Z" stroke="#333333" stroke-linecap="round" stroke-linejoin="round"/>
</g>
<defs>
<clipPath id="clip0_8_424">
<rect width="28" height="28" fill="white"/>
</clipPath>
</defs>
</svg>
