<svg width="28" height="28" viewBox="0 0 28 28" fill="none" xmlns="http://www.w3.org/2000/svg">
<path d="M14 20.0399V22.0599" stroke="#ED1C24" stroke-linecap="round" stroke-linejoin="round"/>
<path d="M14 10.0199V11.8999" stroke="#ED1C24" stroke-linecap="round" stroke-linejoin="round"/>
<path d="M14 26.9799C21 26.9799 26 24.4999 26 18.9799C26 12.9799 23 8.97994 17 5.97994L19.36 2.93994C19.4799 2.74048 19.5449 2.51287 19.5485 2.28018C19.5521 2.04749 19.4941 1.81799 19.3804 1.61494C19.2667 1.41189 19.1013 1.24251 18.901 1.12397C18.7008 1.00543 18.4727 0.941941 18.24 0.939941H9.76C9.52729 0.941941 9.29924 1.00543 9.09898 1.12397C8.89871 1.24251 8.73334 1.41189 8.61963 1.61494C8.50593 1.81799 8.44792 2.04749 8.4515 2.28018C8.45507 2.51287 8.52011 2.74048 8.64 2.93994L11 5.99994C5 9.01994 2 13.0199 2 19.0199C2 24.4999 7 26.9799 14 26.9799Z" stroke="#333333" stroke-linecap="round" stroke-linejoin="round"/>
<path d="M12.0001 19.12C12.2442 19.4096 12.5513 19.6395 12.898 19.7921C13.2447 19.9446 13.6217 20.0157 14.0001 20C14.5785 20.0394 15.1497 19.853 15.5935 19.48C16.0374 19.1071 16.3193 18.5765 16.3801 18C16.3193 17.4234 16.0374 16.8929 15.5935 16.5199C15.1497 16.1469 14.5785 15.9605 14.0001 16C13.4217 16.0394 12.8505 15.853 12.4067 15.48C11.9628 15.1071 11.6809 14.5765 11.6201 14C11.676 13.4214 11.9566 12.8878 12.4016 12.5138C12.8466 12.1399 13.4206 11.9554 14.0001 12C14.3719 11.9772 14.7441 12.0372 15.0899 12.1755C15.4357 12.3138 15.7466 12.5271 16.0001 12.8" stroke="#ED1C24" stroke-linecap="round" stroke-linejoin="round"/>
</svg>
