<svg width="106" height="70" viewBox="0 0 106 70" fill="none" xmlns="http://www.w3.org/2000/svg">
<path d="M106 18.067C105.997 16.455 105.524 14.8195 104.477 13.4718L96.0788 2.70466C94.6723 0.91505 92.5316 0.00430987 90.3923 0C89.1194 0 87.8231 0.327443 86.6777 1.04295L78.4885 6.14755C77.6273 6.69807 76.1503 7.07518 74.7245 7.06592C73.6163 7.07097 72.5458 6.84874 71.8384 6.49857L63.8189 2.60697C62.525 1.98323 61.0832 1.72733 59.633 1.72479C57.5502 1.73405 55.4414 2.24753 53.7467 3.42432L52.8108 4.08174C52.063 3.70799 50.9195 3.13812 49.6249 2.49248C48.0722 1.72983 46.2465 1.42174 44.4023 1.41586C42.7362 1.42091 41.071 1.67764 39.6082 2.29718L34.1461 4.63227C33.2572 5.01865 31.8431 5.27032 30.4384 5.26444C29.0336 5.27033 27.622 5.01865 26.7331 4.63227L21.266 2.29632C20.2687 1.87038 19.2025 1.68772 18.1463 1.68688C16.9298 1.68772 15.7208 1.92847 14.5965 2.38472C13.474 2.84348 12.4323 3.52025 11.6021 4.44957L1.64846 15.6182C0.545299 16.8514 -0.0025079 18.4062 8.63064e-06 19.9364C-0.00251177 21.7614 0.777186 23.5914 2.28037 24.8742L11.5661 32.8113L7.16028 37.4149C5.94622 38.6843 5.34129 40.3307 5.34129 41.9588C5.33877 43.6903 6.0252 45.4394 7.38546 46.7266L8.27941 47.5776C9.12128 48.3773 10.1329 48.8865 11.1915 49.1584C10.6605 50.1374 10.3698 51.2098 10.3723 52.2848C10.3698 54.018 11.0562 55.7654 12.414 57.0543L12.4114 57.0535L13.3079 57.9079C14.5833 59.1192 16.2376 59.7227 17.8667 59.7219C18.7422 59.7227 19.6193 59.5468 20.4428 59.2017C20.7318 60.3768 21.3292 61.4947 22.2685 62.3877L23.165 63.2421C24.4404 64.4534 26.0922 65.057 27.7238 65.0561C28.9992 65.057 30.2814 64.6807 31.3846 63.9492C31.7072 64.9896 32.2601 65.9753 33.102 66.7767L33.9984 67.6311C35.2713 68.8424 36.9256 69.446 38.5549 69.4451C40.2907 69.446 42.0434 68.7633 43.338 67.4097L47.2306 63.3373L52.5197 68.2415C53.7858 69.4183 55.4106 70.0033 57.0146 70C58.7764 70.0034 60.5543 69.2963 61.8514 67.9048L62.6958 66.9982C63.4243 66.2137 63.9007 65.2861 64.1763 64.3173L66.2255 66.2121C67.4941 67.3839 69.1164 67.9664 70.718 67.9655C72.4824 67.9664 74.2652 67.2593 75.5633 65.867L76.4026 64.9621C77.3722 63.9242 77.9175 62.6388 78.0863 61.3265C78.6274 61.4654 79.1752 61.5597 79.7281 61.5597C81.4924 61.5597 83.2703 60.8534 84.5701 59.462L85.412 58.5571C86.5891 57.2936 87.1739 55.6731 87.1713 54.0754C87.1713 53.5796 87.0999 53.0855 86.9907 52.5981C88.4543 52.4037 89.8733 51.7496 90.9522 50.5888L91.7966 49.6822C92.9737 48.4187 93.5559 46.7983 93.5559 45.1989C93.5585 43.4396 92.8502 41.6644 91.453 40.3706L89.8743 38.9093L104.126 23.1226C105.408 21.6984 105.997 19.8683 106 18.067L106 18.067ZM9.87271 44.1266C9.2535 43.5398 8.94766 42.7595 8.94515 41.9583C8.94767 41.2066 9.21652 40.4726 9.76936 39.8951L18.7912 30.463C19.3794 29.8485 20.1632 29.5412 20.9681 29.5395C21.7209 29.5404 22.4569 29.8123 23.0383 30.3611L23.9298 31.213C23.9298 31.213 24.8523 32.58 24.8548 33.383C24.8523 33.984 24.6717 34.569 24.3213 35.0758C24.291 35.1061 14.5843 45.2419 14.5843 45.2419C14.0684 45.6072 13.4593 45.7958 12.8392 45.7983C12.0839 45.7958 11.3454 45.5256 10.769 44.9776L9.87271 44.1266ZM17.8688 56.127C17.1135 56.1261 16.3775 55.8542 15.7986 55.3062L14.9021 54.4527L14.8996 54.4518C14.2854 53.8677 13.9771 53.0848 13.9771 52.2835C13.9771 51.5318 14.2484 50.7978 14.7988 50.2204C14.7988 50.2204 26.8243 37.6789 26.9252 37.5576C27.4999 37.0037 28.2401 36.7175 29.0055 36.7166C29.7608 36.7175 30.4968 36.9885 31.0757 37.5374L31.9722 38.3918C32.5889 38.9759 32.8947 39.7579 32.8973 40.56C32.8947 41.3118 32.6242 42.0466 32.073 42.6249L20.0423 55.2069C19.4567 55.818 18.6736 56.1244 17.8688 56.127ZM27.7267 61.4613C26.9714 61.4604 26.2354 61.1886 25.6565 60.6397L24.7583 59.7862C24.1416 59.2011 23.8333 58.4191 23.8333 57.6179C23.8333 56.947 24.061 56.2963 24.497 55.755L32.8721 46.9972C33.4367 46.4871 34.145 46.2177 34.8785 46.2177C35.6338 46.2185 36.3698 46.4896 36.9487 47.0384L37.8469 47.8928C38.461 48.477 38.7694 49.259 38.7719 50.0605C38.7694 50.8138 38.4963 51.5487 37.9477 52.1253L29.8995 60.5397C29.3148 61.1525 28.5317 61.4588 27.7267 61.4613ZM40.7303 64.9277C40.1447 65.5405 39.3608 65.8469 38.556 65.8494C37.8006 65.8486 37.0646 65.5767 36.4857 65.0279L35.5893 64.1743C34.9751 63.5901 34.6667 62.8073 34.6642 62.006C34.6667 61.2526 34.9373 60.5178 35.4884 59.9429L40.5673 54.6297C41.1554 54.0168 41.9393 53.7088 42.7442 53.7079C43.497 53.7088 44.2355 53.9798 44.8144 54.5295L45.7126 55.383C46.3268 55.9672 46.6326 56.7492 46.6351 57.5507C46.6326 58.3041 46.3621 59.0389 45.8109 59.6155L40.7303 64.9277ZM89.1595 47.2353L88.3176 48.1402C87.7294 48.7698 86.9321 49.0888 86.1155 49.0897C85.3745 49.0888 84.6494 48.8279 84.0739 48.2942L69.8856 35.1483L67.4323 37.7805L82.6194 51.8768C83.2521 52.4635 83.5697 53.2598 83.5747 54.0729C83.5697 54.8136 83.3084 55.5359 82.7749 56.11L81.9355 57.0149C81.3474 57.6445 80.55 57.9618 79.7334 57.9644C78.9924 57.9618 78.2648 57.7 77.6943 57.1706L63.5011 44.0246L61.0502 46.6569L73.6455 58.3263C74.2529 58.9088 74.563 59.6849 74.563 60.4812C74.563 61.2194 74.3017 61.9425 73.7682 62.5158L72.9263 63.4207C72.3407 64.0503 71.5408 64.3693 70.7225 64.3719C69.9789 64.3693 69.2539 64.1075 68.6808 63.5781L56.1109 51.9507H56.1084L56.1059 51.9482L53.6592 54.5845L53.6617 54.587L53.7088 54.6317L60.0044 60.4534C60.5623 61.0275 60.8513 61.7641 60.8538 62.525C60.8513 63.2599 60.5926 63.9788 60.059 64.552L59.2172 65.4586C58.629 66.0882 57.8342 66.4047 57.02 66.4072C56.279 66.4047 55.5539 66.1438 54.9809 65.6118L49.4996 60.5266C49.9768 59.5888 50.2432 58.572 50.2432 57.5508C50.2457 55.8193 49.5592 54.0725 48.2015 52.783L47.3033 51.9286C46.0304 50.7182 44.3786 50.1138 42.7495 50.1163C42.6226 50.1163 42.4958 50.1449 42.3714 50.1525C42.3714 50.1222 42.379 50.091 42.379 50.0607C42.3815 48.3292 40.3373 45.2904 40.3373 45.2904L39.4408 44.4385C38.4881 43.5336 37.3261 42.9688 36.1162 42.7415C36.3658 42.0344 36.5061 41.2979 36.5061 40.5605C36.5061 38.8289 35.8221 37.0813 34.4644 35.7927L33.5679 34.9383C32.2925 33.727 30.6408 33.1218 29.0115 33.1234C28.8208 33.1234 28.6334 33.1622 28.4444 33.179C28.3923 31.5156 27.7243 29.8539 26.4229 28.6166V28.6157L25.5289 27.7647C24.2535 26.5517 22.6018 25.9473 20.9725 25.9482C19.2342 25.9473 17.484 26.63 16.1894 27.9836L14.0595 30.21L4.62601 22.1493C3.94799 21.5676 3.60937 20.7637 3.60686 19.9388C3.60938 19.2477 3.8438 18.57 4.34538 18.0077L14.299 6.83916C14.6939 6.3947 15.2787 5.99318 15.9626 5.71454C16.6465 5.43591 17.4237 5.28272 18.1496 5.28356C18.7822 5.28356 19.3754 5.39804 19.8501 5.60344L25.3146 7.93938C26.8555 8.59007 28.6436 8.85691 30.4406 8.86282C32.2403 8.85692 34.0266 8.59009 35.5666 7.93938L41.0287 5.6043C41.8706 5.23645 43.1418 5.00833 44.4045 5.01337C45.8018 5.00495 47.2015 5.29453 48.0131 5.70952C48.5289 5.96626 49.0179 6.21037 49.4716 6.43849L43.9013 10.362C42.1117 11.623 41.1462 13.6289 41.1488 15.6526C41.1463 16.9918 41.5706 18.3555 42.4326 19.5129L42.4301 19.5104L43.1661 20.5012C44.5633 22.3623 46.7419 23.3185 48.9197 23.3237C50.1497 23.3237 51.4025 23.0122 52.519 22.3413L55.8503 20.3371C56.53 19.9204 57.5558 19.6578 58.6169 19.6628C59.8638 19.6552 61.1199 20.0248 61.8751 20.5812L71.092 27.2018C73.1429 28.674 76.4843 31.4048 78.3362 33.1236L89.0041 43.0059C89.6368 43.5934 89.9544 44.3863 89.9569 45.2013C89.9577 45.9379 89.6939 46.6609 89.1596 47.235L89.1595 47.2353ZM101.452 20.7167L87.2404 36.461L80.7878 30.4854C78.7663 28.6158 75.4341 25.8902 73.1984 24.2816L63.9841 17.661C62.4222 16.5524 60.5091 16.0725 58.6178 16.0658C57.0089 16.0709 55.3872 16.4219 53.9876 17.2569L50.6587 19.2612C50.1479 19.5693 49.5455 19.7258 48.9204 19.7267C47.803 19.7301 46.6839 19.2082 46.0595 18.3571L45.326 17.3672L45.3235 17.3647C44.9337 16.8377 44.7513 16.246 44.7488 15.6474C44.7539 14.7425 45.1706 13.8637 45.9771 13.293L55.8275 6.35925C56.6795 5.74139 58.1944 5.30788 59.6335 5.31882C60.6333 5.31377 61.5886 5.5158 62.2423 5.83905L70.2619 9.73064C71.6288 10.3881 73.1722 10.6574 74.7241 10.6608C76.7187 10.6515 78.735 10.2163 80.3961 9.19443L88.588 4.08831C89.1106 3.76087 89.7382 3.5925 90.3927 3.5925C91.4984 3.58998 92.6066 4.09252 93.2342 4.91156L101.633 15.6787C102.117 16.2957 102.397 17.1652 102.397 18.0668C102.401 19.0769 102.045 20.0685 101.452 20.7167Z" fill="white" fill-opacity="0.7"/>
</svg>
