<svg width="28" height="28" viewBox="0 0 28 28" fill="none" xmlns="http://www.w3.org/2000/svg">
<g clip-path="url(#clip0_8_344)">
<path d="M26.4999 18.72L18.7199 26.5C18.4386 26.7809 18.0574 26.9387 17.6599 26.9387C17.2624 26.9387 16.8811 26.7809 16.5999 26.5L3.57989 13.48C3.50231 13.4058 3.44229 13.3153 3.40422 13.2149C3.36616 13.1146 3.35101 13.007 3.35989 12.9L4.53989 5.22001C4.55365 5.04424 4.62971 4.87916 4.75437 4.7545C4.87904 4.62983 5.04412 4.55377 5.21989 4.54001L12.8999 3.36001C13.0069 3.35113 13.1144 3.36628 13.2148 3.40435C13.3151 3.44241 13.4057 3.50243 13.4799 3.58001L26.4999 16.6C26.7808 16.8813 26.9386 17.2625 26.9386 17.66C26.9386 18.0575 26.7808 18.4388 26.4999 18.72V18.72Z" stroke="#333333" stroke-linecap="round" stroke-linejoin="round"/>
<path d="M8.05957 8.06006L1.05957 1.06006" stroke="#333333" stroke-linecap="round" stroke-linejoin="round"/>
<path d="M12.2426 18.375L16.9011 11.6568H17.8732L13.2147 18.375H12.2426ZM12.6757 15.3528C12.156 15.3528 11.7582 15.1923 11.4822 14.8715C11.2063 14.5443 11.0684 14.0694 11.0684 13.447C11.0684 12.8246 11.2063 12.353 11.4822 12.0321C11.7582 11.7049 12.156 11.5413 12.6757 11.5413C13.1955 11.5413 13.5933 11.7049 13.8692 12.0321C14.1452 12.353 14.2831 12.8246 14.2831 13.447C14.2831 14.0694 14.1452 14.5443 13.8692 14.8715C13.5933 15.1923 13.1955 15.3528 12.6757 15.3528ZM12.6757 14.7079C13.1313 14.7079 13.3591 14.3774 13.3591 13.7165V13.1775C13.3591 12.5166 13.1313 12.1861 12.6757 12.1861C12.2202 12.1861 11.9924 12.5166 11.9924 13.1775V13.7165C11.9924 14.3774 12.2202 14.7079 12.6757 14.7079ZM17.4401 18.4905C16.9204 18.4905 16.5225 18.3301 16.2466 18.0093C15.9707 17.682 15.8327 17.2072 15.8327 16.5848C15.8327 15.9623 15.9707 15.4907 16.2466 15.1699C16.5225 14.8426 16.9204 14.679 17.4401 14.679C17.9599 14.679 18.3577 14.8426 18.6336 15.1699C18.9095 15.4907 19.0475 15.9623 19.0475 16.5848C19.0475 17.2072 18.9095 17.682 18.6336 18.0093C18.3577 18.3301 17.9599 18.4905 17.4401 18.4905ZM17.4401 17.8456C17.8957 17.8456 18.1235 17.5152 18.1235 16.8543V16.3153C18.1235 15.6543 17.8957 15.3239 17.4401 15.3239C16.9845 15.3239 16.7567 15.6543 16.7567 16.3153V16.8543C16.7567 17.5152 16.9845 17.8456 17.4401 17.8456Z" fill="#ED1C24"/>
</g>
<defs>
<clipPath id="clip0_8_344">
<rect width="28" height="28" fill="white"/>
</clipPath>
</defs>
</svg>
