<svg width="20" height="20" viewBox="0 0 20 20" fill="none" xmlns="http://www.w3.org/2000/svg">
<path fill-rule="evenodd" clip-rule="evenodd" d="M15.4419 17.9419C15.1979 18.186 14.8021 18.186 14.5581 17.9419L7.05806 10.4419C6.81398 10.1979 6.81398 9.80214 7.05806 9.55806L14.5581 2.05806C14.8021 1.81398 15.1979 1.81398 15.4419 2.05806C15.686 2.30214 15.686 2.69786 15.4419 2.94194L8.38388 10L15.4419 17.0581C15.686 17.3021 15.686 17.6979 15.4419 17.9419Z" fill="white"/>
<path fill-rule="evenodd" clip-rule="evenodd" d="M10.8589 17.9419C10.6149 18.186 10.2191 18.186 9.97505 17.9419L2.47505 10.4419C2.23097 10.1979 2.23097 9.80214 2.47505 9.55806L9.97505 2.05806C10.2191 1.81398 10.6149 1.81398 10.8589 2.05806C11.103 2.30214 11.103 2.69786 10.8589 2.94194L3.80088 10L10.8589 17.0581C11.103 17.3021 11.103 17.6979 10.8589 17.9419Z" fill="white"/>
</svg>
