<svg width="20" height="20" viewBox="0 0 20 20" fill="none" xmlns="http://www.w3.org/2000/svg">
<path fill-rule="evenodd" clip-rule="evenodd" d="M17.9419 4.55806C18.186 4.80214 18.186 5.19786 17.9419 5.44194L10.4419 12.9419C10.1979 13.186 9.80214 13.186 9.55806 12.9419L2.05806 5.44194C1.81398 5.19786 1.81398 4.80214 2.05806 4.55806C2.30214 4.31398 2.69786 4.31398 2.94194 4.55806L10 11.6161L17.0581 4.55806C17.3021 4.31398 17.6979 4.31398 17.9419 4.55806Z" fill="white"/>
<path fill-rule="evenodd" clip-rule="evenodd" d="M17.9419 9.14155C18.186 9.38563 18.186 9.78136 17.9419 10.0254L10.4419 17.5254C10.1979 17.7695 9.80214 17.7695 9.55806 17.5254L2.05806 10.0254C1.81398 9.78136 1.81398 9.38563 2.05806 9.14155C2.30214 8.89748 2.69786 8.89748 2.94194 9.14155L10 16.1996L17.0581 9.14155C17.3021 8.89748 17.6979 8.89748 17.9419 9.14155Z" fill="white"/>
</svg>
