<svg width="28" height="28" viewBox="0 0 28 28" fill="none" xmlns="http://www.w3.org/2000/svg">
<g clip-path="url(#clip0_8_300)">
<path d="M14 16C16.7614 16 19 13.7614 19 11C19 8.23858 16.7614 6 14 6C11.2386 6 9 8.23858 9 11C9 13.7614 11.2386 16 14 16Z" stroke="#333333" stroke-linecap="round" stroke-linejoin="round"/>
<path d="M20.6199 21.5C18.7924 19.8858 16.4381 18.995 13.9999 18.995C11.5616 18.995 9.20737 19.8858 7.37988 21.5" stroke="#ED1C24" stroke-linecap="round" stroke-linejoin="round"/>
<path d="M27 21V25C27 25.5304 26.7893 26.0391 26.4142 26.4142C26.0391 26.7893 25.5304 27 25 27H21" stroke="#333333" stroke-linecap="round" stroke-linejoin="round"/>
<path d="M21 1H25C25.5304 1 26.0391 1.21071 26.4142 1.58579C26.7893 1.96086 27 2.46957 27 3V7" stroke="#333333" stroke-linecap="round" stroke-linejoin="round"/>
<path d="M1 7V3C1 2.46957 1.21071 1.96086 1.58579 1.58579C1.96086 1.21071 2.46957 1 3 1H7" stroke="#333333" stroke-linecap="round" stroke-linejoin="round"/>
<path d="M7 27H3C2.46957 27 1.96086 26.7893 1.58579 26.4142C1.21071 26.0391 1 25.5304 1 25V21" stroke="#333333" stroke-linecap="round" stroke-linejoin="round"/>
</g>
<defs>
<clipPath id="clip0_8_300">
<rect width="28" height="28" fill="white"/>
</clipPath>
</defs>
</svg>
