<svg width="14" height="10" viewBox="0 0 14 10" fill="none" xmlns="http://www.w3.org/2000/svg">
<path d="M4.75011 8.1275L2.14761 5.525C2.00738 5.38476 1.81718 5.30598 1.61886 5.30598C1.42054 5.30598 1.23034 5.38476 1.09011 5.525C0.949876 5.66523 0.871094 5.85543 0.871094 6.05375C0.871094 6.15194 0.890435 6.24918 0.928014 6.3399C0.965593 6.43063 1.02067 6.51306 1.09011 6.5825L4.22511 9.7175C4.51761 10.01 4.99011 10.01 5.28261 9.7175L13.2176 1.7825C13.3578 1.64226 13.4366 1.45207 13.4366 1.25375C13.4366 1.05543 13.3578 0.86523 13.2176 0.724997C13.0774 0.584764 12.8872 0.505981 12.6889 0.505981C12.4905 0.505981 12.3003 0.584764 12.1601 0.724997L4.75011 8.1275Z" fill="#ED1C24"/>
</svg>
